<svg xmlns="http://www.w3.org/2000/svg" viewBox="0 0 512 512" fill="none">
  <path d="M371.5 229.2v-67.8c16.8-8.4 28.4-25.6 28.4-45.5v-1.4c0-28.1-22.8-50.9-50.9-50.9h-1.4c-19.9 0-37.1 11.6-45.5 28.4h-67.8c-57.9 0-108.4 31.3-135.7 77.8l88.5 88.5c-5.8 11.1-9.1 23.6-9.1 36.9 0 44.2 35.8 80 80 80s80-35.8 80-80-35.8-80-80-80c-13.3 0-25.8 3.3-36.9 9.1l-60.5-60.5c17.9-21.5 44.6-35.2 74.5-35.2h50.1c6.4 21.2 26.1 36.7 49.4 36.7h1.4c28.1 0 50.9-22.8 50.9-50.9v-1.4c0-2-.7-3.9-.9-5.8h25.5zM258 339.2c-22.1 0-40-17.9-40-40s17.9-40 40-40 40 17.9 40 40-17.9 40-40 40z" fill="#FF7A59"/>
</svg>
